# UnrealEd OBJ exporter (_Internal)



v 256.000000 40.428986 970.152100

v 256.000000 51.888535 1063.842651

v 196.816208 40.429142 970.152161

v 182.313126 -3.861633 1440.000000

v 182.313126 163.861633 1440.000000

v 182.313126 -3.861633 928.000000

v 385.686890 163.861633 1440.000000

v 182.313126 163.861633 1440.000000

v 182.313126 -3.861633 1440.000000

v 385.686890 -3.861633 1440.000000

v 385.686890 163.861633 928.000000

v 385.686890 163.861633 1440.000000

v 385.686890 -3.861633 1440.000000

v 385.686890 -3.861633 928.000000

v 182.313126 163.861633 928.000000

v 385.686890 163.861633 928.000000

v 385.686890 -3.861633 928.000000

v 182.313126 -3.861633 928.000000

v 182.313126 163.861633 928.000000

v 182.313126 163.861633 1440.000000

v 196.816208 163.861633 1440.000000

v 196.816208 163.861633 928.000000

v 385.686890 -3.861633 1440.000000

v 182.313126 -3.861633 1440.000000

v 182.313126 -3.861633 928.000000

v 385.686890 -3.861633 928.000000

v 196.816208 16.729294 1250.674072

v 196.816208 16.729294 1248.000000

v 196.816208 48.000099 1248.000000

v 196.816208 64.000000 1424.000000

v 196.816208 96.000290 1424.000000

v 196.816208 163.861633 1426.591919

v 371.183777 163.861633 1426.591919

v 371.183777 16.729294 1426.591919

v 196.816208 16.729294 1426.591919

v 371.183777 163.861633 1426.591919

v 371.183777 163.861633 941.407959

v 371.183777 16.729294 941.407959

v 371.183777 16.729294 1426.591919

v 371.183777 163.861633 941.407959

v 196.816208 163.861633 941.407959

v 196.816208 16.729294 941.407959

v 371.183777 16.729294 941.407959

v 196.816208 16.729294 1426.591919

v 371.183777 16.729294 1426.591919

v 371.183777 16.729294 1424.000000

v 196.816208 16.729294 1424.000000

v 256.000000 64.000000 1424.000000

v 196.816208 64.000000 1424.000000

v 196.816208 16.729294 1424.000000

v 256.000000 16.729294 1424.000000

v 256.000000 160.085114 1426.014160

v 196.816208 160.085114 1426.014160

v 196.816208 126.481323 1426.446777

v 256.000000 126.481323 1426.446777

v 256.000000 160.085114 1426.014160

v 256.000000 126.481323 1426.446777

v 256.000000 126.651428 1424.000000

v 256.000000 160.086533 1424.000000

v 256.000000 160.086533 1424.000000

v 196.816208 160.086533 1424.000000

v 196.816208 160.085114 1426.014160

v 256.000000 160.085114 1426.014160

v 256.000000 126.481323 1426.446777

v 196.816208 126.481323 1426.446777

v 196.816208 126.651428 1424.000000

v 256.000000 126.651428 1424.000000

v 256.000000 16.729294 1250.674072

v 256.000000 64.000000 1424.000000

v 256.000000 16.729294 1424.000000

v 256.000000 16.729294 1250.674072

v 196.816208 16.729294 1250.674072

v 196.816208 64.000000 1424.000000

v 256.000000 64.000000 1424.000000

v 256.000000 96.000153 1072.000244

v 196.816208 96.000237 1072.000366

v 196.816208 96.000046 1247.999878

v 256.000000 96.000046 1247.999878

v 256.000000 160.426697 941.407959

v 196.816208 160.426849 941.407959

v 196.816208 160.210648 1247.999878

v 256.000000 160.210587 1247.999878

v 256.000000 138.887466 1247.999878

v 196.816208 138.887527 1247.999878

v 196.816208 160.202789 941.407959

v 256.000000 160.202621 941.407959

v 256.000000 48.000099 1248.000000

v 196.816208 48.000099 1248.000000

v 196.816208 96.000237 1072.000366

v 256.000000 96.000153 1072.000244

v 256.000000 34.337090 1116.618408

v 196.816208 34.337090 1116.618408

v 196.816208 16.729294 1169.563721

v 256.000000 16.729294 1169.563721

v 256.000000 88.085121 1078.014160

v 196.816208 88.085121 1078.014160

v 196.816208 62.481323 1150.446777

v 256.000000 62.481323 1150.446777

v 256.000000 64.744385 1025.186157

v 196.816208 64.744415 1025.186035

v 196.816208 88.085121 1078.014160

v 256.000000 88.085121 1078.014160

v 256.000000 62.481323 1150.446777

v 196.816208 62.481323 1150.446777

v 196.816208 51.888588 1063.842529

v 256.000000 16.729294 950.864624

v 196.816208 16.729294 950.863770

v 196.816208 34.337090 1116.618408

v 256.000000 34.337090 1116.618408

v 256.000000 40.428986 970.152100

v 196.816208 40.429142 970.152161

v 182.313126 163.861633 928.000000

v 256.000000 96.000359 1424.000122

v 196.816208 96.000290 1424.000000

v 196.816208 48.000099 1248.000000

v 256.000000 48.000099 1248.000000

v 256.000000 96.000046 1247.999878

v 196.816208 96.000046 1247.999878

v 196.816208 96.000290 1424.000000

v 256.000000 96.000359 1424.000122

v 256.000000 96.000359 1424.000122

v 256.000000 48.000099 1248.000000

v 256.000000 96.000046 1247.999878

v 256.000000 96.000153 1072.000244

v 256.000000 96.000046 1247.999878

v 256.000000 48.000099 1248.000000

v 256.000000 16.729294 950.864624

v 256.000000 34.337090 1116.618408

v 256.000000 16.729294 1169.563721

v 256.000000 88.085121 1078.014160

v 256.000000 62.481323 1150.446777

v 256.000000 51.888535 1063.842651

v 256.000000 64.744385 1025.186157

v 256.000000 40.428986 970.152100

v 256.000000 160.210587 1247.999878

v 256.000000 138.887466 1247.999878

v 256.000000 160.202621 941.407959

v 256.000000 160.426697 941.407959

v 371.183777 16.729294 941.407959

v 256.000000 16.729294 941.407959

v 256.000000 16.729294 1424.000000

v 196.816208 16.729294 1250.674072

v 256.000000 16.729294 1250.674072

v 256.000000 16.729294 1169.563721

v 196.816208 16.729294 1169.563721

v 196.816208 16.729294 950.863770

v 256.000000 16.729294 950.864624

v 196.816208 16.729294 941.407959

v 196.816208 96.000237 1072.000366

v 196.816208 48.000099 1248.000000

v 196.816208 27.997728 1248.000000

v 196.816208 96.000153 1055.622803

v 196.816208 88.085121 1078.014160

v 196.816208 64.744415 1025.186035

v 196.816208 95.999565 941.407959

v 196.816208 92.606163 941.407959

v 196.816208 16.729294 1169.563721

v 196.816208 51.888588 1063.842529

v 196.816208 62.481323 1150.446777

v 196.816208 27.729233 941.407959

v 196.816208 64.744415 1025.186035

v 196.816208 51.888588 1063.842529

v 196.816208 34.337090 1116.618408

v 196.816208 16.729294 950.863770

v 196.816208 40.429142 970.152161

v 196.816208 16.729294 941.407959

v 196.816208 163.861633 1425.965698

v 196.816208 163.861633 1426.591919

v 196.816208 115.204979 1426.591919

v 196.816208 160.085114 1426.014160

v 196.816208 160.086533 1424.000000

v 196.816208 163.861633 1424.000000

v 196.816208 16.729294 1426.591919

v 196.816208 16.729294 1424.000000

v 196.816208 126.651428 1424.000000

v 196.816208 126.481323 1426.446777

v 196.816208 160.210648 1247.999878

v 196.816208 163.861633 1247.999756

v 196.816208 96.000046 1247.999878

v 196.816208 138.887527 1247.999878

v 196.816208 126.651428 1424.000000

v 196.816208 163.861633 941.407959

v 196.816208 160.426849 941.407959

v 385.686890 163.861633 1426.591919

v 196.816208 163.861633 1426.591919

v 385.686890 163.861633 1440.000000

v 385.686890 163.861633 928.000000

v 371.183777 163.861633 928.000000

v 371.183777 163.861633 1426.591919

v 196.816208 163.861633 941.407959

v 371.183777 163.861633 941.407959



vt 2.625000 1.395264

vt 2.625000 2.083008

vt 2.162109 1.395264

vt 3.998047 1.000000

vt 3.998047 2.999023

vt 0.000000 1.000000

vt 3.998047 2.999023

vt 0.000000 2.999023

vt 0.000000 1.000000

vt 3.998047 1.000000

vt 3.998047 2.999023

vt 0.000000 2.999023

vt 0.000000 1.000000

vt 3.998047 1.000000

vt 3.998047 2.999023

vt -0.000000 2.999023

vt -0.000000 1.000000

vt 3.998047 1.000000

vt 0.000000 4.998047

vt 0.000000 1.000000

vt 0.285156 1.000000

vt 0.285156 4.998047

vt 3.998047 4.998047

vt 0.000000 4.998047

vt 0.000000 1.000000

vt 3.998047 1.000000

vt 2.548828 1.000000

vt 2.527344 1.000000

vt 2.527344 1.394287

vt 3.978516 1.596191

vt 3.978516 2.000000

vt 0.000000 2.855469

vt 3.998047 2.855469

vt 3.998047 1.000000

vt 0.000000 1.000000

vt 0.000000 2.855469

vt 3.998047 2.855469

vt 3.998047 1.000000

vt 0.000000 1.000000

vt -0.000000 2.855469

vt 3.998047 2.855469

vt 3.998047 1.000000

vt -0.000000 1.000000

vt 0.000000 4.998047

vt 3.998047 4.998047

vt 3.998047 4.978516

vt 0.000000 4.978516

vt 2.625000 1.749512

vt 2.162109 1.749512

vt 2.162109 1.380615

vt 2.625000 1.380615

vt 2.625000 0.542725

vt 2.162109 0.542725

vt 2.162109 0.309570

vt 2.625000 0.309570

vt 0.288086 0.542725

vt 0.408936 0.309570

vt 0.425049 0.319824

vt 0.302002 0.550049

vt 2.625000 1.302002

vt 2.162109 1.302002

vt 2.162109 1.288086

vt 2.625000 1.288086

vt 2.625000 4.589844

vt 2.162109 4.589844

vt 2.162109 4.574219

vt 2.625000 4.574219

vt 3.978516 1.380615

vt 2.623047 1.749512

vt 2.623047 1.380615

vt 2.625000 4.978516

vt 2.162109 4.978516

vt 2.162109 3.623047

vt 2.625000 3.623047

vt 2.625000 4.998047

vt 2.162109 4.998047

vt 2.162109 3.623047

vt 2.625000 3.623047

vt 2.625000 4.625000

vt 2.162109 4.625000

vt 2.162109 2.513672

vt 2.625000 2.513672

vt 2.625000 3.406250

vt 2.162109 3.406250

vt 2.162109 1.373047

vt 2.625000 1.373047

vt 2.625000 2.374023

vt 2.162109 2.374023

vt 2.162109 1.000000

vt 2.625000 1.000000

vt 2.625000 1.626953

vt 2.162109 1.626953

vt 2.162109 1.411621

vt 2.625000 1.411621

vt 2.625000 1.823730

vt 2.162109 1.823730

vt 2.162109 1.380859

vt 2.625000 1.380859

vt 2.625000 4.134766

vt 2.162109 4.134766

vt 2.162109 3.685547

vt 2.625000 3.685547

vt 2.625000 2.718750

vt 2.162109 2.718750

vt 2.162109 2.083008

vt 2.625000 4.945313

vt 2.162109 4.945313

vt 2.162109 3.648438

vt 2.625000 3.648438

vt 2.625000 4.603516

vt 2.162109 4.603516

vt 0.000000 2.999023

vt 2.625000 4.998047

vt 2.162109 4.998047

vt 2.162109 3.623047

vt 2.625000 3.623047

vt 2.625000 2.374023

vt 2.162109 2.374023

vt 2.162109 1.000000

vt 2.625000 1.000000

vt 3.998047 1.374756

vt 2.623047 1.749512

vt 2.623047 1.374756

vt 4.000000 1.749512

vt 2.625000 1.749512

vt 2.625000 1.374756

vt 3.945313 1.745117

vt 2.648438 1.626953

vt 2.269531 1.411621

vt 2.685547 1.823730

vt 2.279297 1.380859

vt 2.916016 1.626465

vt 3.134766 1.857422

vt 3.603516 1.892578

vt 1.513672 1.198853

vt 1.592773 1.052032

vt 3.625000 2.327148

vt 3.625000 2.329102

vt 3.998047 1.000000

vt 1.357422 1.000000

vt 1.357422 4.978516

vt 0.000000 3.548828

vt 1.357422 3.548828

vt 1.357422 2.880859

vt 0.000000 2.880859

vt 0.000000 1.077942

vt 1.357422 1.077942

vt 0.000000 1.000000

vt 1.076172 2.000000

vt 2.527344 1.394287

vt 2.527344 1.142090

vt 0.941406 2.000000

vt 1.125977 1.899902

vt 0.690430 1.605469

vt 0.000000 1.999512

vt 0.000000 1.957031

vt 1.880859 1.000000

vt 1.008789 1.443359

vt 1.722656 1.577148

vt 0.000000 1.138672

vt 0.690430 1.605469

vt 1.008789 1.443359

vt 1.444336 1.222046

vt 0.077942 1.000000

vt 0.236938 1.298828

vt 0.000000 1.000000

vt 3.994141 2.855469

vt 3.998047 2.855469

vt 3.998047 2.242188

vt 3.994141 2.807617

vt 3.978516 2.807617

vt 3.978516 2.855469

vt 3.998047 1.000000

vt 3.978516 1.000000

vt 3.978516 2.385742

vt 3.998047 2.383789

vt 2.527344 2.809570

vt 2.527344 2.855469

vt 2.527344 2.000000

vt 2.527344 2.541016

vt 3.978516 2.385742

vt 0.000000 2.855469

vt 0.000000 2.812500

vt 3.998047 1.104736

vt 0.285156 1.104736

vt 3.998047 1.000000

vt 3.998047 4.998047

vt 3.712891 4.998047

vt 3.712891 1.104736

vt 0.285156 4.894531

vt 3.712891 4.894531



vn -0.003922 -1.000000 0.113726

vn -0.003922 -1.000000 0.113726

vn -0.003922 -1.000000 0.113726

vn -1.000000 -0.003922 -0.003922

vn -1.000000 -0.003922 -0.003922

vn -1.000000 -0.003922 -0.003922

vn -0.003922 -0.003922 1.000000

vn -0.003922 -0.003922 1.000000

vn -0.003922 -0.003922 1.000000

vn -0.003922 -0.003922 1.000000

vn 1.000000 -0.003922 -0.003922

vn 1.000000 -0.003922 -0.003922

vn 1.000000 -0.003922 -0.003922

vn 1.000000 -0.003922 -0.003922

vn -0.003922 -0.003922 -1.000000

vn -0.003922 -0.003922 -1.000000

vn -0.003922 -0.003922 -1.000000

vn -0.003922 -0.003922 -1.000000

vn -0.003922 1.000000 -0.003922

vn -0.003922 1.000000 -0.003922

vn -0.003922 1.000000 -0.003922

vn -0.003922 1.000000 -0.003922

vn -0.003922 -1.000000 -0.003922

vn -0.003922 -1.000000 -0.003922

vn -0.003922 -1.000000 -0.003922

vn -0.003922 -1.000000 -0.003922

vn 1.000000 -0.003922 -0.003922

vn 1.000000 -0.003922 -0.003922

vn 0.992157 -0.003922 -0.003922

vn 1.000000 -0.003922 -0.003922

vn 1.000000 -0.003922 -0.003922

vn -0.003922 -0.003922 -1.000000

vn -0.003922 -0.003922 -1.000000

vn -0.003922 -0.003922 -1.000000

vn -0.003922 -0.003922 -1.000000

vn -1.000000 -0.003922 -0.003922

vn -1.000000 -0.003922 -0.003922

vn -1.000000 -0.003922 -0.003922

vn -1.000000 -0.003922 -0.003922

vn -0.003922 -0.003922 1.000000

vn -0.003922 -0.003922 1.000000

vn -0.003922 -0.003922 1.000000

vn -0.003922 -0.003922 1.000000

vn -0.003922 1.000000 -0.003922

vn -0.003922 1.000000 -0.003922

vn -0.003922 1.000000 -0.003922

vn -0.003922 1.000000 -0.003922

vn -0.003922 -0.003922 1.000000

vn -0.003922 -0.003922 1.000000

vn -0.003922 -0.003922 1.000000

vn -0.003922 -0.003922 1.000000

vn -0.003922 0.011765 0.992157

vn -0.003922 0.011765 0.992157

vn -0.003922 0.011765 0.992157

vn -0.003922 0.011765 0.992157

vn 1.000000 -0.003922 -0.003922

vn 1.000000 -0.003922 -0.003922

vn 1.000000 -0.003922 -0.003922

vn 1.000000 -0.003922 -0.003922

vn -0.003922 0.992157 -0.003922

vn -0.003922 0.992157 -0.003922

vn -0.003922 0.992157 -0.003922

vn -0.003922 0.992157 -0.003922

vn -0.003922 -1.000000 -0.074510

vn -0.003922 -1.000000 -0.074510

vn -0.003922 -1.000000 -0.074510

vn -0.003922 -1.000000 -0.074510

vn 1.000000 -0.003922 -0.003922

vn 1.000000 -0.003922 -0.003922

vn 1.000000 -0.003922 -0.003922

vn -0.003922 0.960784 -0.270588

vn -0.003922 0.960784 -0.270588

vn -0.003922 0.960784 -0.270588

vn -0.003922 0.960784 -0.270588

vn -0.003922 1.000000 -0.003922

vn -0.003922 1.000000 -0.003922

vn -0.003922 1.000000 -0.003922

vn -0.003922 1.000000 -0.003922

vn -0.003922 0.992157 -0.003922

vn -0.003922 0.992157 -0.003922

vn -0.003922 0.992157 -0.003922

vn -0.003922 0.992157 -0.003922

vn -0.003922 -1.000000 -0.074510

vn -0.003922 -1.000000 -0.074510

vn -0.003922 -1.000000 -0.074510

vn -0.003922 -1.000000 -0.074510

vn -0.003922 -0.968627 -0.270588

vn -0.003922 -0.968627 -0.270588

vn -0.003922 -0.968627 -0.270588

vn -0.003922 -0.968627 -0.270588

vn -0.003922 0.945098 0.309804

vn -0.003922 0.945098 0.309804

vn -0.003922 0.945098 0.309804

vn -0.003922 0.945098 0.309804

vn -0.003922 0.937255 0.325490

vn -0.003922 0.937255 0.325490

vn -0.003922 0.937255 0.325490

vn -0.003922 0.937255 0.325490

vn -0.003922 0.913726 -0.411765

vn -0.003922 0.913726 -0.411765

vn -0.003922 0.913726 -0.411765

vn -0.003922 0.913726 -0.411765

vn -0.003922 -1.000000 0.113726

vn -0.003922 -1.000000 0.113726

vn -0.003922 -1.000000 0.113726

vn -0.003922 0.992157 -0.105882

vn -0.003922 0.992157 -0.105882

vn -0.003922 0.992157 -0.105882

vn -0.003922 0.992157 -0.105882

vn -0.003922 0.913726 -0.411765

vn -0.003922 0.913726 -0.411765

vn -1.000000 -0.003922 -0.003922

vn -0.003922 -0.968627 0.262745

vn -0.003922 -0.968627 0.262745

vn -0.003922 -0.968627 0.262745

vn -0.003922 -0.968627 0.262745

vn -0.003922 1.000000 -0.003922

vn -0.003922 1.000000 -0.003922

vn -0.003922 1.000000 -0.003922

vn -0.003922 1.000000 -0.003922

vn 1.000000 -0.003922 -0.003922

vn 1.000000 -0.003922 -0.003922

vn 1.000000 -0.003922 -0.003922

vn 1.000000 -0.003922 -0.003922

vn 1.000000 -0.003922 -0.003922

vn 1.000000 -0.003922 -0.003922

vn 1.000000 -0.003922 -0.003922

vn 1.000000 -0.003922 -0.003922

vn 1.000000 -0.003922 -0.003922

vn 1.000000 -0.003922 -0.003922

vn 1.000000 -0.003922 -0.003922

vn 1.000000 -0.003922 -0.003922

vn 1.000000 -0.003922 -0.003922

vn 1.000000 -0.003922 -0.003922

vn 1.000000 -0.003922 -0.003922

vn 1.000000 -0.003922 -0.003922

vn 1.000000 -0.003922 -0.003922

vn 1.000000 -0.003922 -0.003922

vn -0.003922 1.000000 -0.003922

vn -0.003922 1.000000 -0.003922

vn -0.003922 1.000000 -0.003922

vn -0.003922 1.000000 -0.003922

vn -0.003922 1.000000 -0.003922

vn -0.003922 1.000000 -0.003922

vn -0.003922 1.000000 -0.003922

vn -0.003922 1.000000 -0.003922

vn -0.003922 1.000000 -0.003922

vn -0.003922 1.000000 -0.003922

vn 1.000000 -0.003922 -0.003922

vn 1.000000 -0.003922 -0.003922

vn 1.000000 -0.003922 -0.003922

vn 1.000000 -0.003922 -0.003922

vn 1.000000 -0.003922 -0.003922

vn 0.992157 -0.003922 -0.003922

vn 1.000000 -0.003922 -0.003922

vn 1.000000 -0.003922 -0.003922

vn 1.000000 -0.003922 -0.003922

vn 0.992157 -0.003922 -0.003922

vn 1.000000 -0.003922 -0.003922

vn 1.000000 -0.003922 -0.003922

vn 1.000000 -0.003922 -0.003922

vn 1.000000 -0.003922 -0.003922

vn 1.000000 -0.003922 -0.003922

vn 1.000000 -0.003922 -0.003922

vn 1.000000 -0.003922 -0.003922

vn 1.000000 -0.003922 -0.003922

vn 1.000000 -0.003922 -0.003922

vn 1.000000 -0.003922 -0.003922

vn 1.000000 -0.003922 -0.003922

vn 1.000000 -0.003922 -0.003922

vn 1.000000 -0.003922 -0.003922

vn 1.000000 -0.003922 -0.003922

vn 1.000000 -0.003922 -0.003922

vn 1.000000 -0.003922 -0.003922

vn 0.992157 -0.003922 -0.003922

vn 1.000000 -0.003922 -0.003922

vn 1.000000 -0.003922 -0.003922

vn 1.000000 -0.003922 -0.003922

vn 1.000000 -0.003922 -0.003922

vn 1.000000 -0.003922 -0.003922

vn 1.000000 -0.003922 -0.003922

vn 1.000000 -0.003922 -0.003922

vn 1.000000 -0.003922 -0.003922

vn -0.003922 1.000000 -0.003922

vn -0.003922 1.000000 -0.003922

vn -0.003922 1.000000 -0.003922

vn -0.003922 1.000000 -0.003922

vn -0.003922 1.000000 -0.003922

vn -0.003922 1.000000 -0.003922

vn -0.003922 1.000000 -0.003922

vn -0.003922 1.000000 -0.003922

f 160/160/160 156/156/156 161/161/161

f 162/162/162 163/163/163 164/164/164

f 165/165/165 162/162/162 164/164/164

f 160/160/160 165/165/165 164/164/164

f 166/166/166 160/160/160 164/164/164

f 152/152/152 153/153/153 154/154/154

f 155/155/155 152/152/152 154/154/154

f 156/156/156 155/155/155 154/154/154

f 149/149/149 150/150/150 151/151/151

f 152/152/152 149/149/149 151/151/151

f 28/28/28 157/157/157 158/158/158

f 151/151/151 28/28/28 158/158/158

f 159/159/159 151/151/151 158/158/158

f 27/27/27 28/28/28 29/29/29

f 30/30/30 27/27/27 29/29/29

f 31/31/31 30/30/30 29/29/29

f 155/155/155 183/183/183 179/179/179

f 183/183/183 180/180/180 179/179/179

f 31/31/31 179/179/179 180/180/180

f 181/181/181 31/31/31 180/180/180

f 167/167/167 170/170/170 171/171/171

f 172/172/172 167/167/167 171/171/171

f 172/172/172 171/171/171 177/177/177

f 178/178/178 172/172/172 177/177/177

f 182/182/182 178/178/178 177/177/177

f 183/183/183 182/182/182 177/177/177

f 167/167/167 168/168/168 169/169/169

f 173/173/173 174/174/174 175/175/175

f 169/169/169 173/173/173 175/175/175

f 176/176/176 169/169/169 175/175/175

f 127/127/127 128/128/128 129/129/129

f 130/130/130 131/131/131 132/132/132

f 133/133/133 130/130/130 132/132/132

f 134/134/134 133/133/133 132/132/132

f 124/124/124 125/125/125 126/126/126

f 75/75/75 76/76/76 77/77/77

f 78/78/78 75/75/75 77/77/77

f 71/71/71 72/72/72 73/73/73

f 74/74/74 71/71/71 73/73/73

f 7/7/7 8/8/8 9/9/9

f 10/10/10 7/7/7 9/9/9

f 22/22/22 190/190/190 191/191/191

f 188/188/188 22/22/22 191/191/191

f 187/187/187 188/188/188 189/189/189

f 184/184/184 187/187/187 189/189/189

f 184/184/184 185/185/185 21/21/21

f 186/186/186 184/184/184 21/21/21

f 19/19/19 20/20/20 21/21/21

f 22/22/22 19/19/19 21/21/21

f 146/146/146 147/147/147 140/140/140

f 148/148/148 146/146/146 140/140/140

f 46/46/46 139/139/139 140/140/140

f 141/141/141 46/46/46 140/140/140

f 44/44/44 45/45/45 46/46/46

f 47/47/47 44/44/44 46/46/46

f 142/142/142 143/143/143 144/144/144

f 145/145/145 142/142/142 144/144/144

f 117/117/117 118/118/118 119/119/119

f 120/120/120 117/117/117 119/119/119

f 113/113/113 114/114/114 115/115/115

f 116/116/116 113/113/113 115/115/115

f 5/5/5 112/112/112 6/6/6

f 4/4/4 5/5/5 6/6/6

f 106/106/106 107/107/107 108/108/108

f 109/109/109 106/106/106 108/108/108

f 110/110/110 111/111/111 100/100/100

f 99/99/99 110/110/110 100/100/100

f 99/99/99 100/100/100 101/101/101

f 102/102/102 99/99/99 101/101/101

f 95/95/95 96/96/96 97/97/97

f 98/98/98 95/95/95 97/97/97

f 91/91/91 92/92/92 93/93/93

f 94/94/94 91/91/91 93/93/93

f 87/87/87 88/88/88 89/89/89

f 90/90/90 87/87/87 89/89/89

f 52/52/52 53/53/53 54/54/54

f 55/55/55 52/52/52 54/54/54

f 48/48/48 49/49/49 50/50/50

f 51/51/51 48/48/48 50/50/50

f 40/40/40 41/41/41 42/42/42

f 43/43/43 40/40/40 42/42/42

f 36/36/36 37/37/37 38/38/38

f 39/39/39 36/36/36 38/38/38

f 32/32/32 33/33/33 34/34/34

f 35/35/35 32/32/32 34/34/34

f 23/23/23 24/24/24 25/25/25

f 26/26/26 23/23/23 25/25/25

f 15/15/15 16/16/16 17/17/17

f 18/18/18 15/15/15 17/17/17

f 103/103/103 104/104/104 105/105/105

f 2/2/2 103/103/103 105/105/105

f 2/2/2 105/105/105 3/3/3

f 1/1/1 2/2/2 3/3/3

f 64/64/64 65/65/65 66/66/66

f 67/67/67 64/64/64 66/66/66

f 67/67/67 66/66/66 84/84/84

f 83/83/83 67/67/67 84/84/84

f 83/83/83 84/84/84 85/85/85

f 86/86/86 83/83/83 85/85/85

f 79/79/79 80/80/80 81/81/81

f 82/82/82 79/79/79 81/81/81

f 82/82/82 81/81/81 61/61/61

f 60/60/60 82/82/82 61/61/61

f 60/60/60 61/61/61 62/62/62

f 63/63/63 60/60/60 62/62/62

f 56/56/56 57/57/57 58/58/58

f 59/59/59 56/56/56 58/58/58

f 59/59/59 58/58/58 136/136/136

f 135/135/135 59/59/59 136/136/136

f 135/135/135 136/136/136 137/137/137

f 138/138/138 135/135/135 137/137/137

f 14/14/14 11/11/11 13/13/13

f 11/11/11 12/12/12 13/13/13

f 68/68/68 69/69/69 70/70/70

f 121/121/121 122/122/122 123/123/123

